<svg width="45" height="46" viewBox="0 0 45 46" fill="none" xmlns="http://www.w3.org/2000/svg">
<path d="M22.5 0.277344C10.08 0.277344 0 10.3573 0 22.7773C0 35.1973 10.08 45.2773 22.5 45.2773C34.92 45.2773 45 35.1973 45 22.7773C45 10.3573 34.92 0.277344 22.5 0.277344ZM22.5 9.27734C26.8425 9.27734 30.375 12.8098 30.375 17.1523C30.375 21.4948 26.8425 25.0273 22.5 25.0273C18.1575 25.0273 14.625 21.4948 14.625 17.1523C14.625 12.8098 18.1575 9.27734 22.5 9.27734ZM22.5 40.7773C17.9325 40.7773 12.5325 38.9323 8.685 34.2973C12.6261 31.2052 17.4906 29.5247 22.5 29.5247C27.5094 29.5247 32.3739 31.2052 36.315 34.2973C32.4675 38.9323 27.0675 40.7773 22.5 40.7773Z" fill="#E3DEDE"/>
</svg>
