<svg width="45" height="45" viewBox="0 0 45 45" fill="none" xmlns="http://www.w3.org/2000/svg">
<path d="M22.4775 45C10.053 44.9865 -0.00899397 34.9087 6.03286e-06 22.4842C0.00900603 10.062 10.0845 -0.00449849 22.5068 1.50813e-06C34.9313 0.00450151 45 10.0755 45 22.5C44.9932 34.9312 34.9088 45.0045 22.4775 45ZM4.50001 22.887C4.55114 27.6439 6.48326 32.1871 9.87408 35.5236C13.2649 38.8602 17.8386 40.7188 22.5957 40.6932C27.3528 40.6677 31.9063 38.76 35.261 35.3872C38.6158 32.0143 40.499 27.4506 40.499 22.6935C40.499 17.9364 38.6158 13.3727 35.261 9.99983C31.9063 6.627 27.3528 4.71933 22.5957 4.69376C17.8386 4.66819 13.2649 6.5268 9.87408 9.86337C6.48326 13.1999 4.55114 17.7431 4.50001 22.5V22.887ZM24.75 33.75H20.25V29.25H24.75V33.75ZM24.75 24.75H20.25V11.25H24.75V24.75Z" fill="#E3DEDE"/>
</svg>
